<svg id="Layer_1" data-name="Layer 1" xmlns="http://www.w3.org/2000/svg" viewBox="0 0 1284 327.08"><defs><style>.cls-1{fill:#b3b3b3;}.cls-2{fill:#ccc;}.cls-3{fill:lime;}.cls-4{font-size:240.5px;font-family:Montserrat-Black, Montserrat;}</style></defs><title>Artboard 1</title><circle class="cls-1" cx="163.54" cy="163.54" r="163.04"/><path d="M163.54,1A162.54,162.54,0,0,1,278.47,278.47,162.54,162.54,0,1,1,48.61,48.61,161.46,161.46,0,0,1,163.54,1m0-1A163.54,163.54,0,1,0,327.08,163.54,163.54,163.54,0,0,0,163.54,0Z"/><circle class="cls-2" cx="163.54" cy="163.54" r="134.18"/><path d="M163.54,29.86a133.67,133.67,0,0,1,94.52,228.2A133.68,133.68,0,0,1,69,69a132.8,132.8,0,0,1,94.53-39.15m0-1A134.68,134.68,0,1,0,298.22,163.54,134.68,134.68,0,0,0,163.54,28.86Z"/><polygon class="cls-3" points="193.6 54.11 116.64 175.56 156.32 175.56 127.46 247.71 204.42 144.3 167.15 143.1 193.6 54.11"/><text class="cls-4" transform="translate(361.95 247.71)">Capital</text></svg>